<mxfile host="app.diagrams.net" modified="2024-02-25T00:16:42.804Z" agent="Mozilla/5.0 (Windows NT 10.0; Win64; x64) AppleWebKit/537.36 (KHTML, like Gecko) Chrome/121.0.0.0 Safari/537.36 OPR/107.0.0.0 (Edition std-1)" version="23.1.6" etag="5QZp7AQeVD2DnCtF0VMZ" type="github">
  <diagram name="PÃ¡gina-1" id="DlvhCu-kaEHfdOq0A9WR">
    <mxGraphModel>
      <root>
        <mxCell id="0" />
        <mxCell id="1" parent="0" />
      </root>
    </mxGraphModel>
  </diagram>
</mxfile>
